<svg width="41" height="40" viewBox="0 0 41 40" fill="none" xmlns="http://www.w3.org/2000/svg">
<g clip-path="url(#clip0_467_45)">
<path d="M19.9219 39.8438C30.918 39.8438 39.8438 30.918 39.8438 19.9219C39.8438 8.92578 30.918 0 19.9219 0C8.92578 0 0 8.92578 0 19.9219C0 30.918 8.92578 39.8438 19.9219 39.8438ZM19.9219 36.5234C10.7422 36.5234 3.32031 29.1016 3.32031 19.9219C3.32031 10.7422 10.7422 3.32031 19.9219 3.32031C29.1016 3.32031 36.5234 10.7422 36.5234 19.9219C36.5234 29.1016 29.1016 36.5234 19.9219 36.5234Z" fill="black"/>
<path d="M19.9219 28.457C23.2422 28.457 26.1719 26.9141 26.1719 23.5547C26.1719 20.625 23.8086 19.4922 21.1523 18.8672L19.2773 18.418C17.5781 18.0273 16.1328 17.3047 16.1328 15.7227C16.1328 13.8672 18.125 13.0273 19.9219 13.0273C21.875 13.0273 23.2031 13.8672 23.7305 15.5078C23.9258 16.0938 24.2969 16.3867 24.8242 16.3867C25.3125 16.3867 25.8789 16.0742 25.8789 15.3906C25.8789 12.8906 22.6758 11.1133 19.9219 11.1133C16.7969 11.1133 13.9453 12.8711 13.9453 15.8789C13.9453 18.7891 16.3867 19.9023 18.7891 20.4688L20.6641 20.918C22.4023 21.3281 24.0039 21.9531 24.0039 23.7305C24.0039 25.8789 21.9531 26.543 19.9805 26.543C17.9102 26.543 16.4648 25.8594 15.7617 23.9844C15.5273 23.3984 15.1953 23.1445 14.668 23.1445C14.1016 23.1445 13.6328 23.5352 13.6328 24.1602C13.6328 24.3555 13.6719 24.5508 13.75 24.7852C14.4922 27.3633 17.3633 28.457 19.9219 28.457ZM19.9023 30.7812C20.2539 30.7812 20.5469 30.4883 20.5469 30.1367V9.47266C20.5469 9.12109 20.2539 8.82812 19.9023 8.82812C19.5508 8.82812 19.2578 9.12109 19.2578 9.47266V30.1367C19.2578 30.4883 19.5508 30.7812 19.9023 30.7812Z" fill="black"/>
</g>
<defs>
<clipPath id="clip0_467_45">
<rect width="40.2148" height="39.8633" fill="white"/>
</clipPath>
</defs>
</svg>
