<svg width="41" height="40" viewBox="0 0 41 40" fill="none" xmlns="http://www.w3.org/2000/svg">
<g clip-path="url(#clip0_467_12)">
<path d="M19.9219 39.8438C30.918 39.8438 39.8438 30.918 39.8438 19.9219C39.8438 8.92578 30.918 0 19.9219 0C8.92578 0 0 8.92578 0 19.9219C0 30.918 8.92578 39.8438 19.9219 39.8438ZM19.9219 36.5234C10.7422 36.5234 3.32031 29.1016 3.32031 19.9219C3.32031 10.7422 10.7422 3.32031 19.9219 3.32031C29.1016 3.32031 36.5234 10.7422 36.5234 19.9219C36.5234 29.1016 29.1016 36.5234 19.9219 36.5234Z" fill="white"/>
<path d="M22.2852 28.5156C22.832 28.5156 23.5156 28.4766 24.043 28.3594C24.6484 28.2031 25.0977 27.9297 25.0977 27.3438C25.0977 26.7188 24.6875 26.4258 24.0625 26.4258C23.418 26.4258 23.1836 26.5039 22.4023 26.5039C18.2031 26.5039 15.625 24.121 15.625 19.8438C15.625 15.6249 18.0469 13.1445 22.3438 13.1445C23.0469 13.1445 23.6523 13.2227 24.0625 13.2227C24.6875 13.2227 25.0977 12.9102 25.0977 12.2852C25.0977 11.7578 24.7656 11.4258 24.043 11.25C23.5938 11.1523 22.9688 11.0938 22.2852 11.0938C17.4023 11.0938 13.2812 13.8867 13.2812 19.8242C13.2812 25.4102 16.9727 28.5156 22.2852 28.5156ZM10.625 18.0469C10.625 18.3984 10.918 18.6914 11.2891 18.6914H22.0898C22.4414 18.6914 22.7344 18.3984 22.7344 18.0469C22.7344 17.6953 22.4414 17.4023 22.0898 17.4023H11.2891C10.918 17.4023 10.625 17.6953 10.625 18.0469ZM10.625 21.5625C10.625 21.9141 10.918 22.207 11.2891 22.207H22.0898C22.4414 22.207 22.7344 21.9141 22.7344 21.5625C22.7344 21.1914 22.4414 20.8983 22.0898 20.8983H11.2891C10.918 20.8983 10.625 21.1914 10.625 21.5625Z" fill="white"/>
</g>
<defs>
<clipPath id="clip0_467_12">
<rect width="40.2148" height="39.8633" fill="white"/>
</clipPath>
</defs>
</svg>
