<svg width="41" height="40" viewBox="0 0 41 40" fill="none" xmlns="http://www.w3.org/2000/svg">
<g clip-path="url(#clip0_467_34)">
<path d="M19.9219 39.8438C30.918 39.8438 39.8438 30.918 39.8438 19.9219C39.8438 8.92578 30.918 0 19.9219 0C8.92578 0 0 8.92578 0 19.9219C0 30.918 8.92578 39.8438 19.9219 39.8438ZM19.9219 36.5234C10.7422 36.5234 3.32031 29.1016 3.32031 19.9219C3.32031 10.7422 10.7422 3.32031 19.9219 3.32031C29.1016 3.32031 36.5234 10.7422 36.5234 19.9219C36.5234 29.1016 29.1016 36.5234 19.9219 36.5234Z" fill="white"/>
<path d="M17.5977 28.457H17.832C20.1562 28.457 22.6367 27.5781 24.1797 26.0742C25.4492 24.7852 26.4062 23.0273 26.4062 21.3477C26.4062 20.7227 26.0742 20.2539 25.3516 20.2539C24.6875 20.2539 24.3555 20.6445 24.2773 21.3086C24.1016 22.5391 23.5742 23.6133 22.8125 24.4141C21.6797 25.6445 20.0391 26.2695 18.3789 26.2695V20.0195L22.4023 18.3984C22.7148 18.2617 22.8906 18.0469 22.8906 17.7734C22.8906 17.3633 22.6172 17.1094 22.2461 17.1094C22.1289 17.1094 22.0117 17.1484 21.8945 17.1875L18.3789 18.6133V16.2109L22.4023 14.5703C22.7148 14.4531 22.8906 14.2188 22.8906 13.9062C22.8906 13.6523 22.7344 13.2812 22.2656 13.2812C22.1484 13.2812 22.0312 13.3203 21.8945 13.3789L18.3789 14.8047V12.1094C18.3789 11.4258 17.9297 10.9375 17.2461 10.9375C16.5625 10.9375 16.0742 11.4258 16.0742 12.1094V15.7227L13.6133 16.7188C13.3008 16.8359 13.1641 17.0312 13.1641 17.3438C13.1641 17.7148 13.4375 17.9883 13.7891 17.9883C13.8867 17.9883 14.0234 17.9688 14.1602 17.9102L16.0742 17.1289V19.5508L13.6133 20.5469C13.3008 20.6836 13.1641 20.8594 13.1641 21.1719C13.1641 21.5234 13.4375 21.8164 13.7891 21.8164C13.8867 21.8164 14.043 21.7773 14.1602 21.7383L16.0742 20.9375V27.0117C16.0742 27.8906 16.6992 28.457 17.5977 28.457Z" fill="white"/>
</g>
<defs>
<clipPath id="clip0_467_34">
<rect width="40.2148" height="39.8633" fill="white"/>
</clipPath>
</defs>
</svg>
